<?xml version="1.0" encoding="utf-8"?>
<!-- Generator: Adobe Illustrator 18.0.0, SVG Export Plug-In . SVG Version: 6.00 Build 0)  -->
<!DOCTYPE svg PUBLIC "-//W3C//DTD SVG 1.1//EN" "http://www.w3.org/Graphics/SVG/1.1/DTD/svg11.dtd">
<svg version="1.1" id="Layer_1" xmlns="http://www.w3.org/2000/svg" xmlns:xlink="http://www.w3.org/1999/xlink" x="0px" y="0px"
	 viewBox="0 0 606.8 606.8" enable-background="new 0 0 606.8 606.8" xml:space="preserve">
<g>
	<g>
		<path d="M54.8,261.1c8.3,0,15.4-0.1,22.4,0.1c1.2,0,2.5,0.9,3.5,1.6c24.9,17.9,52.9,26,83.2,27.5c17.7,0.9,35.3,1.9,52.7-2.1
			c5.2-1.2,10.4-2.8,15-5.2c4.7-2.4,9.3-3.1,14.3-3.1c53.2,0.1,106.3,0,159.5,0.1c8.1,0,16.4,1.4,24.4,0.7
			c22.7-2.1,42.5-12,60.2-25.9c10.9-8.6,23-13.1,36.7-14.2c14.7-1.2,25.3,8.4,25.3,23c0,5.5-0.7,11-1.8,16.3
			c-2,10.3-8.3,17.2-18.1,20.8c-3.6,1.3-7.3,2.4-10.9,3.4c-9.6,2.7-18.6,6.3-25,14.6c-0.4-0.2-0.8-0.5-1.1-0.7c1.3-2.7,2-6.2,4-8
			c5.6-5.1,11.6-9.9,17.8-14.1c5.5-3.7,11.8-6.2,17.4-9.8c6.6-4.3,7.7-9,4.9-17c-2.1-5.8-6.2-8.8-13.4-7.9
			c-19.1,2.3-35.9,10.7-46.4,26.5c-29.5,44.3-70.6,69.5-122.1,79.5c-0.7,0.1-1.5,0.4-3.4,0.9c12.5,6.8,22.1,15,28.6,27.5
			c-40.7,0-80.7,0-121.4,0c4.5-9.6,11.7-16.2,20.7-23.1C189.7,367.9,114.4,332,54.8,261.1z"/>
		<path d="M261.5,275.7c7.5-19.6,34-34.6,60.5-34.6c26.2,0,52.6,15.1,60,34.6C341.9,275.7,301.9,275.7,261.5,275.7z"/>
		<path d="M335.1,211.4c-2.4,7.3-4.1,14.3-7,21c-2.6,6.2-7.8,6.5-11.2,0.5c-3.6-6.4-5.8-13.6-9-21.5
			C317.6,211.4,325.8,211.4,335.1,211.4z"/>
	</g>
	<g>
		<path fill="#00669C" d="M54.8,261.1c8.3,0,15.4-0.1,22.4,0.1c1.2,0,2.5,0.9,3.5,1.6c24.9,17.9,52.9,26,83.2,27.5
			c17.7,0.9,35.3,1.9,52.7-2.1c5.2-1.2,10.4-2.8,15-5.2c4.7-2.4,9.3-3.1,14.3-3.1c53.2,0.1,106.3,0,159.5,0.1
			c8.1,0,16.4,1.4,24.4,0.7c22.7-2.1,42.5-12,60.2-25.9c10.9-8.6,23-13.1,36.7-14.2c14.7-1.2,25.3,8.4,25.3,23
			c0,5.5-0.7,11-1.8,16.3c-2,10.3-8.3,17.2-18.1,20.8c-3.6,1.3-7.3,2.4-10.9,3.4c-9.6,2.7-18.6,6.3-25,14.6
			c-0.4-0.2-0.8-0.5-1.1-0.7c1.3-2.7,2-6.2,4-8c5.6-5.1,11.6-9.9,17.8-14.1c5.5-3.7,11.8-6.2,17.4-9.8c6.6-4.3,7.7-9,4.9-17
			c-2.1-5.8-6.2-8.8-13.4-7.9c-19.1,2.3-35.9,10.7-46.4,26.5c-29.5,44.3-70.6,69.5-122.1,79.5c-0.7,0.1-1.5,0.4-3.4,0.9
			c12.5,6.8,22.1,15,28.6,27.5c-40.7,0-80.7,0-121.4,0c4.5-9.6,11.7-16.2,20.7-23.1C189.7,367.9,114.4,332,54.8,261.1z"/>
		<path fill="#00669C" d="M261.5,275.7c7.5-19.6,34-34.6,60.5-34.6c26.2,0,52.6,15.1,60,34.6C341.9,275.7,301.9,275.7,261.5,275.7z"
			/>
		<path fill="#00669C" d="M335.1,211.4c-2.4,7.3-4.1,14.3-7,21c-2.6,6.2-7.8,6.5-11.2,0.5c-3.6-6.4-5.8-13.6-9-21.5
			C317.6,211.4,325.8,211.4,335.1,211.4z"/>
	</g>
</g>
</svg>
